<mxfile host="app.diagrams.net" modified="2024-05-18T11:39:43.337Z" agent="Mozilla/5.0 (Macintosh; Intel Mac OS X 10_15_7) AppleWebKit/605.1.15 (KHTML, like Gecko) Version/17.4.1 Safari/605.1.15" etag="-P0M-OoS3UQ39VSheRk6" version="24.4.4" type="github">
  <diagram name="Страница — 1" id="shIplyw9JGgYR1BFI03_">
    <mxGraphModel dx="1293" dy="845" grid="0" gridSize="10" guides="1" tooltips="1" connect="1" arrows="1" fold="1" page="1" pageScale="1" pageWidth="827" pageHeight="1169" math="0" shadow="0">
      <root>
        <mxCell id="0" />
        <mxCell id="1" parent="0" />
        <mxCell id="_2TXAsaJ7clUbLfZttWF-94" value="" style="rounded=0;whiteSpace=wrap;html=1;fillColor=#FFCE9F;strokeColor=#FFCE9F;" parent="1" vertex="1">
          <mxGeometry x="226" y="227" width="103" height="60" as="geometry" />
        </mxCell>
        <mxCell id="_2TXAsaJ7clUbLfZttWF-2" value="" style="endArrow=classic;html=1;rounded=0;" parent="1" edge="1">
          <mxGeometry width="50" height="50" relative="1" as="geometry">
            <mxPoint x="225" y="417" as="sourcePoint" />
            <mxPoint x="225" y="137" as="targetPoint" />
          </mxGeometry>
        </mxCell>
        <mxCell id="_2TXAsaJ7clUbLfZttWF-3" value="" style="endArrow=classic;html=1;rounded=0;" parent="1" edge="1">
          <mxGeometry width="50" height="50" relative="1" as="geometry">
            <mxPoint x="225" y="417" as="sourcePoint" />
            <mxPoint x="503" y="417" as="targetPoint" />
          </mxGeometry>
        </mxCell>
        <mxCell id="_2TXAsaJ7clUbLfZttWF-4" value="" style="endArrow=none;html=1;rounded=0;" parent="1" edge="1">
          <mxGeometry width="50" height="50" relative="1" as="geometry">
            <mxPoint x="225" y="347" as="sourcePoint" />
            <mxPoint x="483" y="193" as="targetPoint" />
          </mxGeometry>
        </mxCell>
        <mxCell id="_2TXAsaJ7clUbLfZttWF-7" value="" style="endArrow=none;html=1;rounded=0;" parent="1" edge="1">
          <mxGeometry width="50" height="50" relative="1" as="geometry">
            <mxPoint x="225" y="177" as="sourcePoint" />
            <mxPoint x="485" y="297" as="targetPoint" />
          </mxGeometry>
        </mxCell>
        <mxCell id="_2TXAsaJ7clUbLfZttWF-9" value="" style="endArrow=none;html=1;rounded=0;" parent="1" edge="1">
          <mxGeometry width="50" height="50" relative="1" as="geometry">
            <mxPoint x="226" y="238" as="sourcePoint" />
            <mxPoint x="485" y="357" as="targetPoint" />
          </mxGeometry>
        </mxCell>
        <mxCell id="_2TXAsaJ7clUbLfZttWF-10" value="" style="endArrow=none;dashed=1;html=1;dashPattern=1 3;strokeWidth=2;rounded=0;" parent="1" edge="1">
          <mxGeometry width="50" height="50" relative="1" as="geometry">
            <mxPoint x="329" y="417" as="sourcePoint" />
            <mxPoint x="330" y="225" as="targetPoint" />
          </mxGeometry>
        </mxCell>
        <mxCell id="_2TXAsaJ7clUbLfZttWF-11" value="" style="endArrow=none;dashed=1;html=1;dashPattern=1 3;strokeWidth=2;rounded=0;" parent="1" edge="1">
          <mxGeometry width="50" height="50" relative="1" as="geometry">
            <mxPoint x="226" y="286" as="sourcePoint" />
            <mxPoint x="326" y="286" as="targetPoint" />
          </mxGeometry>
        </mxCell>
        <mxCell id="_2TXAsaJ7clUbLfZttWF-12" value="" style="endArrow=none;dashed=1;html=1;dashPattern=1 3;strokeWidth=2;rounded=0;" parent="1" edge="1">
          <mxGeometry width="50" height="50" relative="1" as="geometry">
            <mxPoint x="386" y="418" as="sourcePoint" />
            <mxPoint x="386" y="253" as="targetPoint" />
          </mxGeometry>
        </mxCell>
        <mxCell id="_2TXAsaJ7clUbLfZttWF-13" value="" style="endArrow=none;dashed=1;html=1;dashPattern=1 3;strokeWidth=2;rounded=0;" parent="1" edge="1">
          <mxGeometry width="50" height="50" relative="1" as="geometry">
            <mxPoint x="226" y="251" as="sourcePoint" />
            <mxPoint x="385" y="251" as="targetPoint" />
          </mxGeometry>
        </mxCell>
        <mxCell id="_2TXAsaJ7clUbLfZttWF-25" value="&lt;font style=&quot;font-size: 9px;&quot;&gt;Price of affected food (COP)&lt;/font&gt;" style="text;html=1;align=center;verticalAlign=middle;resizable=0;points=[];autosize=1;strokeColor=none;fillColor=none;rotation=-90;fontSize=9;" parent="1" vertex="1">
          <mxGeometry x="109" y="180" width="151" height="24" as="geometry" />
        </mxCell>
        <mxCell id="_2TXAsaJ7clUbLfZttWF-26" value="&lt;font style=&quot;font-size: 9px;&quot;&gt;Quantity of affected food (Units)&lt;/font&gt;" style="text;html=1;align=center;verticalAlign=middle;resizable=0;points=[];autosize=1;strokeColor=none;fillColor=none;rotation=0;fontSize=9;" parent="1" vertex="1">
          <mxGeometry x="407" y="425" width="167" height="24" as="geometry" />
        </mxCell>
        <mxCell id="_2TXAsaJ7clUbLfZttWF-27" value="Q&lt;sub&gt;opt&lt;/sub&gt;" style="text;html=1;align=center;verticalAlign=middle;resizable=0;points=[];autosize=1;strokeColor=none;fillColor=none;rotation=0;fontSize=9;" parent="1" vertex="1">
          <mxGeometry x="310" y="418" width="37" height="26" as="geometry" />
        </mxCell>
        <mxCell id="_2TXAsaJ7clUbLfZttWF-28" value="Q&lt;span style=&quot;font-size: 7.5px;&quot;&gt;&lt;sub&gt;m&lt;/sub&gt;&lt;/span&gt;" style="text;html=1;align=center;verticalAlign=middle;resizable=0;points=[];autosize=1;strokeColor=none;fillColor=none;rotation=0;fontSize=9;" parent="1" vertex="1">
          <mxGeometry x="369" y="419" width="31" height="25" as="geometry" />
        </mxCell>
        <mxCell id="_2TXAsaJ7clUbLfZttWF-29" value="&lt;sub&gt;&lt;font size=&quot;1&quot;&gt;P&lt;/font&gt;p&lt;/sub&gt;" style="text;html=1;align=center;verticalAlign=middle;resizable=0;points=[];autosize=1;strokeColor=none;fillColor=none;rotation=0;fontSize=9;" parent="1" vertex="1">
          <mxGeometry x="196" y="272.5" width="30" height="27" as="geometry" />
        </mxCell>
        <mxCell id="_2TXAsaJ7clUbLfZttWF-30" value="P&lt;sub&gt;m&lt;/sub&gt;" style="text;html=1;align=center;verticalAlign=middle;resizable=0;points=[];autosize=1;strokeColor=none;fillColor=none;rotation=0;fontSize=9;" parent="1" vertex="1">
          <mxGeometry x="195.5" y="242" width="31" height="26" as="geometry" />
        </mxCell>
        <mxCell id="_2TXAsaJ7clUbLfZttWF-31" value="" style="endArrow=classic;startArrow=classic;html=1;rounded=0;" parent="1" edge="1">
          <mxGeometry width="50" height="50" relative="1" as="geometry">
            <mxPoint x="441" y="332" as="sourcePoint" />
            <mxPoint x="441" y="283" as="targetPoint" />
          </mxGeometry>
        </mxCell>
        <mxCell id="_2TXAsaJ7clUbLfZttWF-32" value="&lt;font style=&quot;font-size: 8px;&quot;&gt;External cost&lt;/font&gt;" style="text;html=1;align=center;verticalAlign=middle;resizable=0;points=[];autosize=1;strokeColor=none;fillColor=none;rotation=0;fontSize=8;" parent="1" vertex="1">
          <mxGeometry x="434" y="303" width="64" height="21" as="geometry" />
        </mxCell>
        <mxCell id="_2TXAsaJ7clUbLfZttWF-33" value="0" style="text;html=1;align=center;verticalAlign=middle;resizable=0;points=[];autosize=1;strokeColor=none;fillColor=none;rotation=0;fontSize=9;" parent="1" vertex="1">
          <mxGeometry x="208" y="410" width="24" height="24" as="geometry" />
        </mxCell>
        <mxCell id="_2TXAsaJ7clUbLfZttWF-34" value="&lt;font style=&quot;font-size: 9px;&quot;&gt;D = MPB&lt;/font&gt;" style="text;html=1;align=center;verticalAlign=middle;resizable=0;points=[];autosize=1;strokeColor=none;fillColor=none;rotation=0;fontSize=9;" parent="1" vertex="1">
          <mxGeometry x="482" y="283.5" width="60" height="24" as="geometry" />
        </mxCell>
        <mxCell id="_2TXAsaJ7clUbLfZttWF-35" value="&lt;font style=&quot;font-size: 9px;&quot;&gt;MSB&lt;/font&gt;" style="text;html=1;align=center;verticalAlign=middle;resizable=0;points=[];autosize=1;strokeColor=none;fillColor=none;rotation=0;fontSize=9;" parent="1" vertex="1">
          <mxGeometry x="478" y="348" width="42" height="24" as="geometry" />
        </mxCell>
        <mxCell id="_2TXAsaJ7clUbLfZttWF-36" value="S = MPC = MSC" style="text;html=1;align=center;verticalAlign=middle;resizable=0;points=[];autosize=1;strokeColor=none;fillColor=none;rotation=0;fontSize=9;" parent="1" vertex="1">
          <mxGeometry x="466" y="197" width="97" height="24" as="geometry" />
        </mxCell>
        <mxCell id="_2TXAsaJ7clUbLfZttWF-88" value="" style="endArrow=none;html=1;rounded=0;strokeColor=#00CC00;" parent="1" edge="1">
          <mxGeometry width="50" height="50" relative="1" as="geometry">
            <mxPoint x="226.5" y="287" as="sourcePoint" />
            <mxPoint x="484.5" y="133" as="targetPoint" />
          </mxGeometry>
        </mxCell>
        <mxCell id="_2TXAsaJ7clUbLfZttWF-89" value="MPC + tax" style="text;html=1;align=center;verticalAlign=middle;resizable=0;points=[];autosize=1;strokeColor=none;fillColor=none;rotation=0;fontSize=9;" parent="1" vertex="1">
          <mxGeometry x="478" y="117" width="67" height="24" as="geometry" />
        </mxCell>
        <mxCell id="_2TXAsaJ7clUbLfZttWF-90" value="" style="endArrow=classic;startArrow=classic;html=1;rounded=0;" parent="1" edge="1">
          <mxGeometry width="50" height="50" relative="1" as="geometry">
            <mxPoint x="441" y="214" as="sourcePoint" />
            <mxPoint x="441" y="165" as="targetPoint" />
          </mxGeometry>
        </mxCell>
        <mxCell id="_2TXAsaJ7clUbLfZttWF-91" value="&lt;font style=&quot;font-size: 8px;&quot;&gt;Tax = External&lt;/font&gt;&lt;div&gt;&lt;font style=&quot;font-size: 8px;&quot;&gt;&amp;nbsp;cost&lt;/font&gt;&lt;/div&gt;" style="text;html=1;align=center;verticalAlign=middle;resizable=0;points=[];autosize=1;strokeColor=none;fillColor=none;rotation=0;fontSize=8;" parent="1" vertex="1">
          <mxGeometry x="439" y="156" width="69" height="31" as="geometry" />
        </mxCell>
        <mxCell id="_2TXAsaJ7clUbLfZttWF-92" value="&lt;sub&gt;&lt;font size=&quot;1&quot;&gt;P&lt;sub&gt;c&lt;/sub&gt;&lt;/font&gt;&lt;/sub&gt;" style="text;html=1;align=center;verticalAlign=middle;resizable=0;points=[];autosize=1;strokeColor=none;fillColor=none;rotation=0;fontSize=9;" parent="1" vertex="1">
          <mxGeometry x="196" y="207" width="31" height="31" as="geometry" />
        </mxCell>
        <mxCell id="_2TXAsaJ7clUbLfZttWF-93" value="" style="endArrow=none;dashed=1;html=1;dashPattern=1 3;strokeWidth=2;rounded=0;" parent="1" edge="1">
          <mxGeometry width="50" height="50" relative="1" as="geometry">
            <mxPoint x="226" y="226" as="sourcePoint" />
            <mxPoint x="330" y="226" as="targetPoint" />
          </mxGeometry>
        </mxCell>
        <mxCell id="_2TXAsaJ7clUbLfZttWF-96" value="" style="endArrow=classic;html=1;rounded=0;" parent="1" edge="1">
          <mxGeometry width="50" height="50" relative="1" as="geometry">
            <mxPoint x="312" y="163" as="sourcePoint" />
            <mxPoint x="276" y="242" as="targetPoint" />
          </mxGeometry>
        </mxCell>
        <mxCell id="_2TXAsaJ7clUbLfZttWF-97" value="Government revenue" style="text;html=1;align=center;verticalAlign=middle;resizable=0;points=[];autosize=1;strokeColor=none;fillColor=none;rotation=0;fontSize=9;" parent="1" vertex="1">
          <mxGeometry x="258" y="141" width="118" height="24" as="geometry" />
        </mxCell>
      </root>
    </mxGraphModel>
  </diagram>
</mxfile>
